<mxfile type="github" version="12.6.5" etag="zFPNZOONQiXtmdoKNOiE" agent="Mozilla/5.0 (Windows NT 10.0; Win64; x64) AppleWebKit/537.36 (KHTML, like Gecko) Chrome/70.0.3538.102 Safari/537.36 Edge/18.18362" modified="2020-02-05T21:42:57.221Z" host="www.draw.io">
  <diagram id="sJEDQ1FDgJrnj1U0HVIR" name="Page-1">
    <mxGraphModel grid="1" shadow="0" math="0" pageHeight="1100" pageWidth="850" pageScale="1" page="1" fold="1" arrows="1" connect="1" tooltips="1" guides="1" gridSize="10" dy="498" dx="768">
      <root>
        <mxCell id="0"/>
        <mxCell id="1" parent="0"/>
        <mxCell id="aYUSD6C4PKZgxw3aKRPT-1" value="" style="rhombus;whiteSpace=wrap;html=1;" parent="1" vertex="1">
          <mxGeometry as="geometry" width="30" height="30" x="215" y="300"/>
        </mxCell>
        <mxCell id="aYUSD6C4PKZgxw3aKRPT-2" value="ROOM" style="rounded=0;whiteSpace=wrap;html=1;" parent="1" vertex="1">
          <mxGeometry as="geometry" width="120" height="60" x="520" y="180"/>
        </mxCell>
        <mxCell id="aYUSD6C4PKZgxw3aKRPT-3" value="MEMBER" style="rounded=0;whiteSpace=wrap;html=1;" parent="1" vertex="1">
          <mxGeometry as="geometry" width="120" height="60" x="170" y="180"/>
        </mxCell>
        <mxCell id="aYUSD6C4PKZgxw3aKRPT-4" value="SESSIONS" style="rounded=0;whiteSpace=wrap;html=1;" parent="1" vertex="1">
          <mxGeometry as="geometry" width="120" height="60" x="170" y="390"/>
        </mxCell>
        <mxCell id="aYUSD6C4PKZgxw3aKRPT-5" value="TRAINER" style="rounded=0;whiteSpace=wrap;html=1;" parent="1" vertex="1">
          <mxGeometry as="geometry" width="120" height="60" x="520" y="390"/>
        </mxCell>
        <mxCell id="aYUSD6C4PKZgxw3aKRPT-6" value="&lt;u&gt;Room Number&lt;/u&gt;" style="ellipse;whiteSpace=wrap;html=1;" parent="1" vertex="1">
          <mxGeometry as="geometry" width="80" height="40" x="460" y="130"/>
        </mxCell>
        <mxCell id="aYUSD6C4PKZgxw3aKRPT-7" value="Max Capacity" style="ellipse;whiteSpace=wrap;html=1;" parent="1" vertex="1">
          <mxGeometry as="geometry" width="80" height="40" x="630" y="130"/>
        </mxCell>
        <mxCell id="aYUSD6C4PKZgxw3aKRPT-12" value="" style="endArrow=none;html=1;entryX=0.5;entryY=1;entryDx=0;entryDy=0;exitX=0;exitY=0;exitDx=0;exitDy=0;" target="aYUSD6C4PKZgxw3aKRPT-6" parent="1" source="aYUSD6C4PKZgxw3aKRPT-2" edge="1">
          <mxGeometry as="geometry" width="50" height="50" relative="1">
            <mxPoint as="sourcePoint" x="30" y="520"/>
            <mxPoint as="targetPoint" x="80" y="470"/>
          </mxGeometry>
        </mxCell>
        <mxCell id="aYUSD6C4PKZgxw3aKRPT-13" value="" style="endArrow=none;html=1;entryX=0.5;entryY=1;entryDx=0;entryDy=0;" target="aYUSD6C4PKZgxw3aKRPT-7" parent="1" source="aYUSD6C4PKZgxw3aKRPT-2" edge="1">
          <mxGeometry as="geometry" width="50" height="50" relative="1">
            <mxPoint as="sourcePoint" x="530" y="190"/>
            <mxPoint as="targetPoint" x="510" y="170"/>
          </mxGeometry>
        </mxCell>
        <mxCell id="aYUSD6C4PKZgxw3aKRPT-14" value="Room Number" style="ellipse;whiteSpace=wrap;html=1;" parent="1" vertex="1">
          <mxGeometry as="geometry" width="80" height="40" x="100" y="490"/>
        </mxCell>
        <mxCell id="aYUSD6C4PKZgxw3aKRPT-15" value="" style="endArrow=none;html=1;entryX=0.625;entryY=0;entryDx=0;entryDy=0;exitX=0;exitY=1;exitDx=0;exitDy=0;entryPerimeter=0;" target="aYUSD6C4PKZgxw3aKRPT-14" parent="1" source="aYUSD6C4PKZgxw3aKRPT-4" edge="1">
          <mxGeometry as="geometry" width="50" height="50" relative="1">
            <mxPoint as="sourcePoint" x="100" y="450"/>
            <mxPoint as="targetPoint" x="-280" y="830"/>
          </mxGeometry>
        </mxCell>
        <mxCell id="aYUSD6C4PKZgxw3aKRPT-18" value="Date" style="ellipse;whiteSpace=wrap;html=1;" parent="1" vertex="1">
          <mxGeometry as="geometry" width="80" height="40" x="190" y="520"/>
        </mxCell>
        <mxCell id="aYUSD6C4PKZgxw3aKRPT-19" value="" style="endArrow=none;html=1;entryX=0.5;entryY=0;entryDx=0;entryDy=0;exitX=0.5;exitY=1;exitDx=0;exitDy=0;" target="aYUSD6C4PKZgxw3aKRPT-18" parent="1" source="aYUSD6C4PKZgxw3aKRPT-4" edge="1">
          <mxGeometry as="geometry" width="50" height="50" relative="1">
            <mxPoint as="sourcePoint" x="260" y="480"/>
            <mxPoint as="targetPoint" x="-190" y="860"/>
          </mxGeometry>
        </mxCell>
        <mxCell id="aYUSD6C4PKZgxw3aKRPT-20" value="Start Time" style="ellipse;whiteSpace=wrap;html=1;" parent="1" vertex="1">
          <mxGeometry as="geometry" width="80" height="40" x="290" y="490"/>
        </mxCell>
        <mxCell id="aYUSD6C4PKZgxw3aKRPT-21" value="" style="endArrow=none;html=1;entryX=0.625;entryY=0;entryDx=0;entryDy=0;exitX=1;exitY=1;exitDx=0;exitDy=0;entryPerimeter=0;" target="aYUSD6C4PKZgxw3aKRPT-20" parent="1" source="aYUSD6C4PKZgxw3aKRPT-4" edge="1">
          <mxGeometry as="geometry" width="50" height="50" relative="1">
            <mxPoint as="sourcePoint" x="360" y="450"/>
            <mxPoint as="targetPoint" x="-90" y="830"/>
          </mxGeometry>
        </mxCell>
        <mxCell id="aYUSD6C4PKZgxw3aKRPT-23" value="&lt;u&gt;ID&lt;/u&gt;" style="ellipse;whiteSpace=wrap;html=1;" parent="1" vertex="1">
          <mxGeometry as="geometry" width="80" height="40" x="190" y="110"/>
        </mxCell>
        <mxCell id="aYUSD6C4PKZgxw3aKRPT-24" value="" style="endArrow=none;html=1;entryX=0.5;entryY=1;entryDx=0;entryDy=0;exitX=0.5;exitY=0;exitDx=0;exitDy=0;" target="aYUSD6C4PKZgxw3aKRPT-23" parent="1" source="aYUSD6C4PKZgxw3aKRPT-3" edge="1">
          <mxGeometry as="geometry" width="50" height="50" relative="1">
            <mxPoint as="sourcePoint" x="260" y="70"/>
            <mxPoint as="targetPoint" x="-190" y="450"/>
          </mxGeometry>
        </mxCell>
        <mxCell id="aYUSD6C4PKZgxw3aKRPT-25" value="&lt;u&gt;Certification Number&lt;/u&gt;" style="ellipse;whiteSpace=wrap;html=1;" parent="1" vertex="1">
          <mxGeometry as="geometry" width="80" height="40" x="540" y="500"/>
        </mxCell>
        <mxCell id="aYUSD6C4PKZgxw3aKRPT-26" value="" style="endArrow=none;html=1;entryX=0.5;entryY=0;entryDx=0;entryDy=0;exitX=0.5;exitY=1;exitDx=0;exitDy=0;" target="aYUSD6C4PKZgxw3aKRPT-25" parent="1" source="aYUSD6C4PKZgxw3aKRPT-5" edge="1">
          <mxGeometry as="geometry" width="50" height="50" relative="1">
            <mxPoint as="sourcePoint" x="580" y="570"/>
            <mxPoint as="targetPoint" x="160" y="840"/>
          </mxGeometry>
        </mxCell>
        <mxCell id="aYUSD6C4PKZgxw3aKRPT-27" value="" style="endArrow=none;html=1;entryX=0.5;entryY=1;entryDx=0;entryDy=0;exitX=0.5;exitY=0;exitDx=0;exitDy=0;" target="aYUSD6C4PKZgxw3aKRPT-1" parent="1" source="aYUSD6C4PKZgxw3aKRPT-4" edge="1">
          <mxGeometry as="geometry" width="50" height="50" relative="1">
            <mxPoint as="sourcePoint" x="100" y="630"/>
            <mxPoint as="targetPoint" x="150" y="580"/>
          </mxGeometry>
        </mxCell>
        <mxCell id="aYUSD6C4PKZgxw3aKRPT-28" value="" style="endArrow=none;html=1;entryX=0.5;entryY=0;entryDx=0;entryDy=0;exitX=0.5;exitY=1;exitDx=0;exitDy=0;" target="aYUSD6C4PKZgxw3aKRPT-1" parent="1" source="aYUSD6C4PKZgxw3aKRPT-29" edge="1">
          <mxGeometry as="geometry" width="50" height="50" relative="1">
            <mxPoint as="sourcePoint" x="240" y="400"/>
            <mxPoint as="targetPoint" x="240" y="340"/>
          </mxGeometry>
        </mxCell>
        <mxCell id="aYUSD6C4PKZgxw3aKRPT-29" value="Sign up" style="text;html=1;align=center;verticalAlign=middle;resizable=0;points=[];autosize=1;" parent="1" vertex="1">
          <mxGeometry as="geometry" width="60" height="20" x="200" y="280"/>
        </mxCell>
        <mxCell id="aYUSD6C4PKZgxw3aKRPT-30" value="" style="endArrow=none;html=1;entryX=0.5;entryY=0;entryDx=0;entryDy=0;exitX=0.5;exitY=1;exitDx=0;exitDy=0;" target="aYUSD6C4PKZgxw3aKRPT-29" parent="1" source="aYUSD6C4PKZgxw3aKRPT-3" edge="1">
          <mxGeometry as="geometry" width="50" height="50" relative="1">
            <mxPoint as="sourcePoint" x="230" y="240"/>
            <mxPoint as="targetPoint" x="230" y="300"/>
          </mxGeometry>
        </mxCell>
        <mxCell id="aYUSD6C4PKZgxw3aKRPT-31" value="0...N" style="text;html=1;align=center;verticalAlign=middle;resizable=0;points=[];autosize=1;" parent="1" vertex="1">
          <mxGeometry as="geometry" width="40" height="20" x="230" y="370"/>
        </mxCell>
        <mxCell id="aYUSD6C4PKZgxw3aKRPT-32" value="0...M" style="text;html=1;align=center;verticalAlign=middle;resizable=0;points=[];autosize=1;" parent="1" vertex="1">
          <mxGeometry as="geometry" width="40" height="20" x="230" y="240"/>
        </mxCell>
        <mxCell id="aYUSD6C4PKZgxw3aKRPT-33" value="" style="rhombus;whiteSpace=wrap;html=1;" parent="1" vertex="1">
          <mxGeometry as="geometry" width="30" height="30" x="390" y="405"/>
        </mxCell>
        <mxCell id="aYUSD6C4PKZgxw3aKRPT-34" value="" style="endArrow=none;html=1;exitX=0;exitY=0.5;exitDx=0;exitDy=0;entryX=1;entryY=0.5;entryDx=0;entryDy=0;" target="aYUSD6C4PKZgxw3aKRPT-33" parent="1" source="aYUSD6C4PKZgxw3aKRPT-5" edge="1">
          <mxGeometry as="geometry" width="50" height="50" relative="1">
            <mxPoint as="sourcePoint" x="420" y="480"/>
            <mxPoint as="targetPoint" x="510" y="340"/>
          </mxGeometry>
        </mxCell>
        <mxCell id="aYUSD6C4PKZgxw3aKRPT-35" value="Lead" style="text;html=1;align=center;verticalAlign=middle;resizable=0;points=[];autosize=1;" parent="1" vertex="1">
          <mxGeometry as="geometry" width="40" height="20" x="385" y="385"/>
        </mxCell>
        <mxCell id="aYUSD6C4PKZgxw3aKRPT-37" value="" style="endArrow=none;html=1;exitX=0;exitY=0.5;exitDx=0;exitDy=0;entryX=1;entryY=0.5;entryDx=0;entryDy=0;" parent="1" edge="1">
          <mxGeometry as="geometry" width="50" height="50" relative="1">
            <mxPoint as="sourcePoint" x="390" y="419.5"/>
            <mxPoint as="targetPoint" x="290" y="419.5"/>
          </mxGeometry>
        </mxCell>
        <mxCell id="aYUSD6C4PKZgxw3aKRPT-38" value="0...N" style="text;html=1;align=center;verticalAlign=middle;resizable=0;points=[];autosize=1;" parent="1" vertex="1">
          <mxGeometry as="geometry" width="40" height="20" x="290" y="400"/>
        </mxCell>
        <mxCell id="aYUSD6C4PKZgxw3aKRPT-39" value="1...1" style="text;html=1;align=center;verticalAlign=middle;resizable=0;points=[];autosize=1;" parent="1" vertex="1">
          <mxGeometry as="geometry" width="40" height="20" x="480" y="400"/>
        </mxCell>
        <mxCell id="iXcYHFIY6xja0WZdI4mM-1" value="" style="endArrow=none;html=1;entryX=0;entryY=1;entryDx=0;entryDy=0;" target="aYUSD6C4PKZgxw3aKRPT-2" parent="1" source="iXcYHFIY6xja0WZdI4mM-2" edge="1">
          <mxGeometry as="geometry" width="50" height="50" relative="1">
            <mxPoint as="sourcePoint" x="290" y="390"/>
            <mxPoint as="targetPoint" x="340" y="340"/>
          </mxGeometry>
        </mxCell>
        <mxCell id="iXcYHFIY6xja0WZdI4mM-2" value="" style="rhombus;whiteSpace=wrap;html=1;" parent="1" vertex="1">
          <mxGeometry as="geometry" width="30" height="30" x="400" y="290"/>
        </mxCell>
        <mxCell id="iXcYHFIY6xja0WZdI4mM-3" value="" style="endArrow=none;html=1;entryX=0;entryY=1;entryDx=0;entryDy=0;" target="iXcYHFIY6xja0WZdI4mM-2" parent="1" edge="1">
          <mxGeometry as="geometry" width="50" height="50" relative="1">
            <mxPoint as="sourcePoint" x="290" y="390"/>
            <mxPoint as="targetPoint" x="520" y="240"/>
          </mxGeometry>
        </mxCell>
        <mxCell id="iXcYHFIY6xja0WZdI4mM-4" value="Held in" style="text;html=1;align=center;verticalAlign=middle;resizable=0;points=[];autosize=1;" parent="1" vertex="1">
          <mxGeometry as="geometry" width="50" height="20" x="390" y="270"/>
        </mxCell>
        <mxCell id="iXcYHFIY6xja0WZdI4mM-5" value="0...N" style="text;html=1;align=center;verticalAlign=middle;resizable=0;points=[];autosize=1;" parent="1" vertex="1">
          <mxGeometry as="geometry" width="40" height="20" x="280" y="360"/>
        </mxCell>
        <mxCell id="iXcYHFIY6xja0WZdI4mM-10" value="1...1" style="text;html=1;align=center;verticalAlign=middle;resizable=0;points=[];autosize=1;" parent="1" vertex="1">
          <mxGeometry as="geometry" width="40" height="20" x="480" y="230"/>
        </mxCell>
      </root>
    </mxGraphModel>
  </diagram>
</mxfile>
